<svg xmlns="http://www.w3.org/2000/svg" width="64" height="64" viewBox="0 0 64 64">
  <circle cx="32" cy="32" r="32" fill="#000000"/>
  <path fill="#ffffff" d="M50 20.5c-1.4.6-2.9 1-4.5 1.2 1.6-.9 2.8-2.3 3.4-4-1.5.9-3.2 1.5-5 1.9-1.4-1.5-3.5-2.4-5.7-2.4-4.3 0-7.8 3.5-7.8 7.8 0 .6.1 1.2.2 1.8-6.5-.3-12.3-3.5-16.2-8.3-.7 1.2-1.1 2.6-1.1 4.1 0 2.8 1.4 5.2 3.5 6.7-1.3 0-2.5-.4-3.5-1v.1c0 3.9 2.8 7.2 6.5 7.9-.7.2-1.4.3-2.2.3-.5 0-1 0-1.5-.1 1 3.1 3.8 5.4 7.2 5.4-2.6 2-5.9 3.1-9.4 3.1-.6 0-1.1 0-1.7-.1 3.3 2.1 7.2 3.3 11.4 3.3 13.6 0 21-11.3 21-21v-1c1.4-1 2.5-2.2 3.5-3.5z"/>
</svg>
